<svg id="Layer_1" data-name="Layer 1" xmlns="http://www.w3.org/2000/svg" xmlns:xlink="http://www.w3.org/1999/xlink" viewBox="0 0 585.64 142.05"><defs><style>.cls-1{fill:none;}.cls-2{clip-path:url(#clip-path);}.cls-13,.cls-3{fill:#7232f1;}.cls-3,.cls-5{fill-rule:evenodd;}.cls-4{clip-path:url(#clip-path-2);}.cls-16,.cls-5{fill:#190649;}.cls-6{clip-path:url(#clip-path-3);}.cls-7{clip-path:url(#clip-path-4);}.cls-8{clip-path:url(#clip-path-6);}.cls-9{clip-path:url(#clip-path-8);}.cls-10{clip-path:url(#clip-path-9);}.cls-11{clip-path:url(#clip-path-12);}.cls-12{clip-path:url(#clip-path-13);}.cls-14{clip-path:url(#clip-path-14);}.cls-15{clip-path:url(#clip-path-15);}</style><clipPath id="clip-path" transform="translate(-5.34 -4.09)"><rect class="cls-1" x="38.67" y="4" width="91.13" height="141.33"/></clipPath><clipPath id="clip-path-2" transform="translate(-5.34 -4.09)"><rect class="cls-1" x="5.34" y="20" width="90.66" height="114.67"/></clipPath><clipPath id="clip-path-3" transform="translate(-5.34 -4.09)"><rect class="cls-1" x="102.67" y="22.67" width="46.67" height="126.67"/></clipPath><clipPath id="clip-path-4" transform="translate(-5.34 -4.09)"><rect class="cls-1" x="105.58" y="24.52" width="39.82" height="126.44" transform="translate(-3.74 5.61) rotate(-2.52)"/></clipPath><clipPath id="clip-path-6" transform="translate(-5.34 -4.09)"><rect class="cls-1" x="102.67" y="25.33" width="45.53" height="121.33"/></clipPath><clipPath id="clip-path-8" transform="translate(-5.34 -4.09)"><rect class="cls-1" x="106.29" y="22.53" width="108.52" height="126.44" transform="translate(-3.62 7.15) rotate(-2.52)"/></clipPath><clipPath id="clip-path-9" transform="translate(-5.34 -4.09)"><rect class="cls-1" x="133.33" y="37.33" width="14.86" height="100"/></clipPath><clipPath id="clip-path-12" transform="translate(-5.34 -4.09)"><rect class="cls-1" x="470.67" y="72" width="122.67" height="77.34"/></clipPath><clipPath id="clip-path-13" transform="translate(-5.34 -4.09)"><rect class="cls-1" x="470.67" y="72" width="122.67" height="78.67"/></clipPath><clipPath id="clip-path-14" transform="translate(-5.34 -4.09)"><rect class="cls-1" x="145.33" y="16" width="328" height="133.34"/></clipPath><clipPath id="clip-path-15" transform="translate(-5.34 -4.09)"><rect class="cls-1" x="145.33" y="16" width="328" height="134.67"/></clipPath></defs><g class="cls-2"><path class="cls-3" d="M39.66,138V101.61A33.73,33.73,0,0,0,47,109.32a32.87,32.87,0,0,0,4.51,2.89,33.34,33.34,0,0,0,4.9,2.14,34.26,34.26,0,0,0,5.18,1.34,32.82,32.82,0,0,0,5.33.5,34.13,34.13,0,0,0,5.34-.34,33.62,33.62,0,0,0,10.18-3.17,35.5,35.5,0,0,0,4.59-2.75,34,34,0,0,0,7.6-7.49,33.67,33.67,0,0,0,6.57-20V30.29l.08.05a23.31,23.31,0,0,1,.32-2.63,25.59,25.59,0,0,1,.56-2.6c.23-.85.49-1.69.8-2.52s.65-1.64,1-2.44a29.08,29.08,0,0,1,2.73-4.54c.52-.71,1.08-1.4,1.67-2.06s1.21-1.28,1.86-1.89,1.32-1.17,2-1.71,1.42-1,2.17-1.51a26.33,26.33,0,0,1,2.31-1.31c.79-.4,1.6-.76,2.42-1.08a29.25,29.25,0,0,1,5.09-1.47c.87-.16,1.75-.29,2.63-.37s1.76-.12,2.64-.12V82.43c0,1.31,0,2.63-.12,3.94s-.22,2.62-.38,3.93-.38,2.61-.63,3.9-.54,2.58-.87,3.85-.71,2.54-1.12,3.79-.86,2.49-1.35,3.71-1,2.42-1.58,3.61-1.18,2.36-1.82,3.51-1.32,2.28-2,3.39-1.46,2.18-2.25,3.25-1.59,2.09-2.44,3.1-1.73,2-2.64,2.93-1.85,1.88-2.81,2.77-2,1.75-3,2.58-2.08,1.63-3.15,2.39-2.17,1.49-3.29,2.18-2.26,1.35-3.42,2-2.35,1.2-3.54,1.74-2.42,1.06-3.65,1.52-2.47.9-3.73,1.29-2.53.73-3.81,1-2.57.58-3.87.8-2.6.41-3.91.55-2.62.25-3.94.3-2.63.08-3.94.06-2.63-.09-4-.2-2.62-.26-3.92-.45-2.6-.42-3.89-.7-2.57-.58-3.83-.94-2.53-.75-3.77-1.18-2.47-.91-3.69-1.42S40.84,138.57,39.66,138Z" transform="translate(-5.34 -4.09)"/></g><g class="cls-4"><path class="cls-5" d="M5.34,82.43c0-1.32,0-2.64.13-4s.21-2.63.38-3.93.37-2.61.62-3.9.55-2.58.88-3.85.7-2.54,1.11-3.79.87-2.48,1.36-3.71,1-2.42,1.58-3.61,1.17-2.36,1.81-3.51,1.33-2.28,2-3.39,1.46-2.19,2.24-3.25,1.6-2.09,2.45-3.1,1.72-2,2.63-2.93,1.85-1.88,2.82-2.77,2-1.76,3-2.58,2.07-1.62,3.15-2.39,2.17-1.49,3.29-2.18,2.26-1.35,3.42-2,2.34-1.21,3.54-1.75,2.41-1.05,3.65-1.52,2.47-.9,3.73-1.29,2.53-.73,3.81-1,2.57-.57,3.86-.8,2.61-.41,3.91-.55,2.62-.24,3.94-.3,2.63-.08,3.95-.06,2.63.09,3.94.2,2.62.26,3.92.45,2.6.43,3.89.7,2.57.59,3.84.94,2.52.75,3.76,1.18,2.47.91,3.69,1.42,2.41,1.07,3.59,1.65V63.24a34.59,34.59,0,0,0-3.38-4.15,33.8,33.8,0,0,0-4-3.56,32.18,32.18,0,0,0-4.5-2.89,33.46,33.46,0,0,0-4.91-2.14,34.14,34.14,0,0,0-5.17-1.34A34.1,34.1,0,0,0,62.63,49a33.53,33.53,0,0,0-14.78,5.93A33.76,33.76,0,0,0,37.44,67a32.74,32.74,0,0,0-2.07,4.93,33.12,33.12,0,0,0-1.26,5.2,34.13,34.13,0,0,0-.43,5.34v52.13A63,63,0,0,1,27.47,130a61.21,61.21,0,0,1-5.59-5.33,63.68,63.68,0,0,1-4.9-6,62.38,62.38,0,0,1-7.36-13.56,63,63,0,0,1-3.8-15A62.1,62.1,0,0,1,5.34,82.43Z" transform="translate(-5.34 -4.09)"/></g><g class="cls-6"><g class="cls-7"><g class="cls-6"><g class="cls-8"><g class="cls-7"><g class="cls-9"><path class="cls-3" d="M187.14,139.29l-1.4-31.82a29.86,29.86,0,0,1-10,9.73,30.94,30.94,0,0,1-4.21,2.06,29.76,29.76,0,0,1-9.12,2,31.94,31.94,0,0,1-4.69-.1,29.66,29.66,0,0,1-9-2.38,30.91,30.91,0,0,1-4.12-2.23,29.31,29.31,0,0,1-3.71-2.86A29.6,29.6,0,0,1,133,102.2a29,29,0,0,1-1.31-4.5,30.14,30.14,0,0,1-.57-4.65l-2-45.61-.07.05a24.49,24.49,0,0,0-1-4.54,23.86,23.86,0,0,0-1.8-4.27,24.85,24.85,0,0,0-2.56-3.86,25.5,25.5,0,0,0-3.24-3.33A24.94,24.94,0,0,0,108,25.84a24.66,24.66,0,0,0-4.63-.23l3,68.54c0,1.15.14,2.3.26,3.44s.29,2.29.48,3.43.44,2.26.7,3.39.57,2.23.92,3.33.71,2.19,1.12,3.27.85,2.14,1.33,3.19,1,2.09,1.52,3.1,1.12,2,1.73,3,1.24,1.94,1.9,2.89,1.37,1.86,2.09,2.75,1.48,1.77,2.26,2.62,1.58,1.67,2.42,2.47,1.69,1.57,2.57,2.31,1.79,1.46,2.71,2.14,1.88,1.34,2.85,2,2,1.22,3,1.78,2,1.09,3.07,1.59,2.1,1,3.17,1.39,2.15.83,3.25,1.19,2.19.69,3.31,1,2.24.55,3.37.77,2.27.4,3.41.55,2.3.25,3.45.33,2.3.11,3.46.11,2.3,0,3.45-.1,2.3-.19,3.44-.33,2.28-.32,3.42-.54,2.25-.47,3.37-.76,2.22-.61,3.32-1,2.18-.76,3.25-1.18,2.13-.89,3.17-1.39S186.13,139.85,187.14,139.29Z" transform="translate(-5.34 -4.09)"/></g></g></g><g class="cls-10"><g class="cls-7"><g class="cls-9"><path class="cls-5" d="M215,89.36c-.05-1.15-.14-2.3-.26-3.45s-.29-2.28-.48-3.42-.43-2.27-.7-3.39-.57-2.23-.91-3.33-.72-2.2-1.12-3.28-.86-2.14-1.33-3.19-1-2.08-1.53-3.1-1.12-2-1.72-3-1.24-1.94-1.91-2.88-1.36-1.86-2.09-2.76-1.48-1.77-2.26-2.62-1.58-1.67-2.41-2.47-1.7-1.56-2.58-2.3S193.94,48.71,193,48s-1.87-1.34-2.84-2-2-1.22-3-1.78-2-1.1-3.07-1.6-2.09-1-3.16-1.39-2.16-.82-3.25-1.19-2.2-.68-3.32-1-2.24-.55-3.37-.77-2.27-.4-3.41-.55-2.29-.26-3.44-.34-2.3-.11-3.46-.11-2.3,0-3.45.11-2.3.18-3.45.32-2.28.33-3.41.55-2.26.47-3.37.76-2.23.61-3.32,1-2.18.75-3.25,1.18-2.13.89-3.17,1.39-2.07,1-3.08,1.58L135.63,76a29.28,29.28,0,0,1,2.79-3.76,29.95,29.95,0,0,1,7.18-6,28.92,28.92,0,0,1,8.69-3.43,29.11,29.11,0,0,1,4.64-.65,30.59,30.59,0,0,1,4.69.09,30.13,30.13,0,0,1,4.61.84,29.52,29.52,0,0,1,8.54,3.78,30.06,30.06,0,0,1,3.72,2.85,29.6,29.6,0,0,1,7.86,11.51,29.63,29.63,0,0,1,1.3,4.5,29.26,29.26,0,0,1,.58,4.65l2,45.61a51.25,51.25,0,0,0,5.26-4.26,52.87,52.87,0,0,0,4.7-4.88,54.29,54.29,0,0,0,7.38-11.31A54.32,54.32,0,0,0,215,89.36Z" transform="translate(-5.34 -4.09)"/></g></g></g></g></g></g><g class="cls-11"><g class="cls-12"><path class="cls-13" d="M499.08,122.59H484.54l-2.33,6.87h-9.92l14.08-39h11l14.09,39h-10Zm-2.43-7.34L491.81,101,487,115.25Z" transform="translate(-5.34 -4.09)"/><path class="cls-13" d="M522.57,102.88a9.8,9.8,0,0,1,3.81-3.5A12,12,0,0,1,532.11,98a12.81,12.81,0,0,1,6.94,2,13.4,13.4,0,0,1,4.9,5.54,18.56,18.56,0,0,1,1.81,8.38,18.8,18.8,0,0,1-1.81,8.42,13.7,13.7,0,0,1-4.9,5.6,12.72,12.72,0,0,1-6.94,2,12.17,12.17,0,0,1-5.73-1.29,10.18,10.18,0,0,1-3.81-3.48v4.33h-9.5V88.4h9.5Zm13.54,11a7.61,7.61,0,0,0-2-5.56,6.69,6.69,0,0,0-9.66,0,9,9,0,0,0,0,11.21,6.68,6.68,0,0,0,9.64,0A7.76,7.76,0,0,0,536.11,113.92Z" transform="translate(-5.34 -4.09)"/><path class="cls-13" d="M557.59,88.4v41.06h-9.5V88.4Z" transform="translate(-5.34 -4.09)"/><path class="cls-13" d="M591,113.48a24.27,24.27,0,0,1-.16,2.77H569.34a6.56,6.56,0,0,0,1.85,4.42,5.76,5.76,0,0,0,4,1.52,5,5,0,0,0,4.94-3h10.11a13.8,13.8,0,0,1-2.82,5.5,14,14,0,0,1-5.08,3.83,16.31,16.31,0,0,1-6.81,1.38,16.79,16.79,0,0,1-8.13-1.94,13.8,13.8,0,0,1-5.54-5.54,19.06,19.06,0,0,1,0-16.88A13.7,13.7,0,0,1,567.4,100a16.73,16.73,0,0,1,8.17-2,16.48,16.48,0,0,1,8,1.9,13.36,13.36,0,0,1,5.45,5.37A16.34,16.34,0,0,1,591,113.48Zm-9.7-2.5a4.85,4.85,0,0,0-1.67-3.87,6.6,6.6,0,0,0-8.19-.07,6.18,6.18,0,0,0-2,3.94Z" transform="translate(-5.34 -4.09)"/></g></g><g class="cls-14"><g class="cls-15"><path class="cls-16" d="M207.56,142.68l-9.8-13.16a43.12,43.12,0,0,1-8.47.87,39.9,39.9,0,0,1-19.75-5,37.5,37.5,0,0,1-14.25-14A39,39,0,0,1,150,91.22a38.77,38.77,0,0,1,5.28-20.12,37.63,37.63,0,0,1,14.25-13.92,41.45,41.45,0,0,1,39.47,0A36.81,36.81,0,0,1,223.16,71.1a39.48,39.48,0,0,1,5.17,20.12,40.06,40.06,0,0,1-4,17.9,36.74,36.74,0,0,1-11,13.44l16.75,20.12Zm-38.5-51.46q0,10.13,5.48,16.17t14.75,6q9.14,0,14.62-6.08t5.5-16.11q0-10.12-5.5-16.14t-14.62-6q-9.25,0-14.75,6T169.06,91.22Z" transform="translate(-5.34 -4.09)"/><path class="cls-16" d="M293.37,68.93v60.69H274.78v-8.27a20.59,20.59,0,0,1-7.68,6.48,23.56,23.56,0,0,1-10.71,2.44,24,24,0,0,1-12.29-3.09,20.79,20.79,0,0,1-8.25-9,30.49,30.49,0,0,1-2.94-13.81V68.93h18.48v33q0,6.09,3.14,9.46a12.52,12.52,0,0,0,17.09,0q3.17-3.37,3.16-9.46v-33Z" transform="translate(-5.34 -4.09)"/><path class="cls-16" d="M319.9,79a24.47,24.47,0,0,1,8.17-7.88,20.92,20.92,0,0,1,10.87-2.89V88h-5.1q-7,0-10.46,3t-3.48,10.5v28.17H301.32V68.93H319.9Z" transform="translate(-5.34 -4.09)"/><path class="cls-16" d="M338.72,99.16a36.15,36.15,0,0,1,3.54-16.41,26.32,26.32,0,0,1,9.63-10.88,25.09,25.09,0,0,1,13.6-3.81,23.2,23.2,0,0,1,11.25,2.62,19.4,19.4,0,0,1,7.46,6.84V68.93h18.59v60.69H384.2V121a20.32,20.32,0,0,1-7.58,6.85,23.36,23.36,0,0,1-11.25,2.61,24.66,24.66,0,0,1-13.48-3.86,26.8,26.8,0,0,1-9.63-11A36.57,36.57,0,0,1,338.72,99.16Zm45.48.11q0-7-3.87-11a13.07,13.07,0,0,0-18.82,0q-3.86,4-3.85,10.91t3.85,11a12.95,12.95,0,0,0,18.82.07Q384.2,106.22,384.2,99.27Z" transform="translate(-5.34 -4.09)"/><path class="cls-16" d="M447.82,68.27q10.65,0,17,6.91t6.38,19v35.46H452.72v-33q0-6.07-3.17-9.46a12.38,12.38,0,0,0-17,0q-3.15,3.38-3.14,9.46v33H410.84V68.93h18.59v8a19.63,19.63,0,0,1,7.62-6.35A24.09,24.09,0,0,1,447.82,68.27Z" transform="translate(-5.34 -4.09)"/></g></g></svg>